# xmcd
#
# Track frame offsets:
#	150
#	12912
#	26200
#	39150
#	50892
#	62432
#	74717
#	87625
#	101952
#	114512
#	127747
#	142550
#	156810
#	169020
#	183435
#	196752
#	210592
#	224700
#	237725
#	249992
#	261885
#	273982
#	287297
#	304527
#	319077
#
# Disc length: 4412 seconds
#
# Revision: 9
# Processed by: cddbd v1.5.2PL0 Copyright (c) Steve Scherf et al.
# Submitted via: EZCDAudioConverter 2.1.7.1
#
DISCID=6b113a19
DTITLE=V/A - Chess Blues 1/4
DYEAR=1992
DGENRE=Blues
TTITLE0=Clarence Samuels - Lollypop Mama
TTITLE1=Andrew Tibbs - Bilbo Is Dead
TTITLE2=Sunnyland Slim - Johnson Machine Gun
TTITLE3=Sunnyland Slim - Fly Right, Little Girl
TTITLE4=Muddy Waters - Little Anna Mae
TTITLE5=Muddy Waters - I Can't Be Satisfied
TTITLE6=Robert Nighthawk - My Sweet Lovin' Woman
TTITLE7=Muddy Waters - I Feel Like Going Home
TTITLE8=Sunnyland Slim - She Ain't Nowhere
TTITLE9=St. Louis Jimmy - Florida Hurricane
TTITLE10=Forest City Joe - Memory Of Sonny Boy
TTITLE11=Forrest Sykes - Tonky Boogie
TTITLE12=Laura Rucker - Cryin' The Blues
TTITLE13=Baby Face Leroy - My Head Can't Rest Anymore
TTITLE14=Little Johnny Jones - Big Town Playboy
TTITLE15=Robert Nighthawk - Sweet Black Angel
TTITLE16=Muddy Waters - Rollin' Stone
TTITLE17=Jimmy Rogers - Luedella
TTITLE18=Memphis Slim - Mother Earth
TTITLE19=Dr. Isaiah Ross - Dr. Ross' Boogie
TTITLE20=Johnny Shines - Joliet Blues
TTITLE21=Howlin' Wolf - Moanin' At Midnight
TTITLE22=Muddy Waters - All Night Long [Alternate]
TTITLE23=Arbee Stidham - Mr. Commissioner [Alternate]
TTITLE24=Howlin' Wolf - Gettin' Old And Grey
EXTD=
EXTT0=
EXTT1=
EXTT2=
EXTT3=
EXTT4=
EXTT5=
EXTT6=
EXTT7=
EXTT8=
EXTT9=
EXTT10=
EXTT11=
EXTT12=
EXTT13=
EXTT14=
EXTT15=
EXTT16=
EXTT17=
EXTT18=
EXTT19=
EXTT20=
EXTT21=
EXTT22=
EXTT23=
EXTT24=
PLAYORDER=
